<svg xmlns="http://www.w3.org/2000/svg" xmlns:xlink="http://www.w3.org/1999/xlink" width="1366" zoomAndPan="magnify" viewBox="0 0 1024.5 576" height="768" preserveAspectRatio="xMidYMid meet" version="1.0"><defs><g/><clipPath id="8774f6ed45"><path d="M 872.617188 120.425781 L 1003.804688 120.425781 L 1003.804688 196.886719 L 872.617188 196.886719 Z M 872.617188 120.425781 " clip-rule="nonzero"/></clipPath></defs><path fill="#0284c7" d="M 97.078125 145.21875 C 91.152344 139.886719 82.007812 140.367188 76.679688 146.292969 L 13.1875 216.835938 C 8.238281 222.339844 8.238281 230.671875 13.1875 236.171875 L 76.679688 306.71875 C 79.53125 309.886719 83.464844 311.496094 87.417969 311.496094 C 90.859375 311.496094 94.316406 310.273438 97.078125 307.789062 C 103.003906 302.449219 103.484375 293.316406 98.148438 287.382812 L 43.351562 226.503906 L 98.148438 165.625 C 103.484375 159.691406 103.003906 150.5625 97.078125 145.21875 Z M 97.078125 145.21875 " fill-opacity="1" fill-rule="nonzero"/><path fill="#0284c7" d="M 304.277344 216.835938 L 240.785156 146.292969 C 235.453125 140.367188 226.320312 139.886719 220.386719 145.21875 C 214.457031 150.5625 213.980469 159.691406 219.316406 165.625 L 274.109375 226.503906 L 219.316406 287.382812 C 213.980469 293.316406 214.457031 302.449219 220.386719 307.789062 C 223.148438 310.273438 226.601562 311.496094 230.046875 311.496094 C 234 311.496094 237.933594 309.886719 240.785156 306.71875 L 304.277344 236.171875 C 309.222656 230.671875 309.222656 222.339844 304.277344 216.835938 Z M 304.277344 216.835938 " fill-opacity="1" fill-rule="nonzero"/><path fill="#0284c7" d="M 191.320312 93.761719 C 183.554688 91.882812 175.753906 96.601562 173.851562 104.351562 L 115.558594 341.777344 C 113.65625 349.523438 118.394531 357.339844 126.144531 359.246094 C 127.300781 359.53125 128.457031 359.660156 129.59375 359.660156 C 136.09375 359.660156 141.992188 355.25 143.609375 348.660156 L 201.90625 111.234375 C 203.808594 103.484375 199.070312 95.671875 191.320312 93.761719 Z M 191.320312 93.761719 " fill-opacity="1" fill-rule="nonzero"/><path fill="#ffffff" d="M 907.289062 180.457031 L 898.632812 180.457031 C 896.375 180.457031 894.539062 178.621094 894.539062 176.363281 L 894.539062 140.890625 C 894.539062 138.628906 896.375 136.796875 898.632812 136.796875 L 907.289062 136.796875 C 914.949219 136.796875 921.1875 142.835938 921.1875 150.265625 L 921.1875 166.988281 C 921.1875 174.414062 914.957031 180.457031 907.289062 180.457031 Z M 902.726562 172.269531 L 907.289062 172.269531 C 910.4375 172.269531 913.003906 169.902344 913.003906 166.988281 L 913.003906 150.265625 C 913.003906 147.351562 910.4375 144.984375 907.289062 144.984375 L 902.726562 144.984375 Z M 902.726562 172.269531 " fill-opacity="1" fill-rule="nonzero"/><path fill="#ffffff" d="M 946.113281 180.277344 L 927.648438 180.277344 C 925.390625 180.277344 923.558594 178.441406 923.558594 176.183594 L 923.558594 140.890625 C 923.558594 138.628906 925.390625 136.796875 927.648438 136.796875 L 946.113281 136.796875 C 948.371094 136.796875 950.207031 138.628906 950.207031 140.890625 C 950.207031 143.148438 948.371094 144.984375 946.113281 144.984375 L 931.742188 144.984375 L 931.742188 172.089844 L 946.113281 172.089844 C 948.371094 172.089844 950.207031 173.921875 950.207031 176.183594 C 950.207031 178.441406 948.371094 180.277344 946.113281 180.277344 Z M 946.113281 180.277344 " fill-opacity="1" fill-rule="nonzero"/><path fill="#ffffff" d="M 940.835938 162.625 L 927.644531 162.625 C 925.386719 162.625 923.550781 160.792969 923.550781 158.535156 C 923.550781 156.273438 925.386719 154.441406 927.644531 154.441406 L 940.835938 154.441406 C 943.09375 154.441406 944.929688 156.273438 944.929688 158.535156 C 944.929688 160.792969 943.09375 162.625 940.835938 162.625 Z M 940.835938 162.625 " fill-opacity="1" fill-rule="nonzero"/><path fill="#ffffff" d="M 967.214844 180.457031 C 965.40625 180.457031 963.8125 179.265625 963.292969 177.53125 L 952.738281 142.058594 C 952.09375 139.890625 953.328125 137.613281 955.496094 136.964844 C 957.667969 136.328125 959.941406 137.554688 960.585938 139.722656 L 967.214844 162.003906 L 973.84375 139.722656 C 974.484375 137.554688 976.765625 136.320312 978.933594 136.964844 C 981.101562 137.609375 982.332031 139.890625 981.691406 142.058594 L 971.140625 177.53125 C 970.621094 179.265625 969.027344 180.457031 967.214844 180.457031 Z M 967.214844 180.457031 " fill-opacity="1" fill-rule="nonzero"/><g clip-path="url(#8774f6ed45)"><path fill="#ffffff" d="M 994.136719 196.828125 L 882.261719 196.828125 C 876.996094 196.828125 872.710938 192.542969 872.710938 187.277344 L 872.710938 129.972656 C 872.710938 124.707031 876.996094 120.425781 882.261719 120.425781 L 994.136719 120.425781 C 999.40625 120.425781 1003.6875 124.707031 1003.6875 129.972656 L 1003.6875 187.277344 C 1003.6875 192.542969 999.40625 196.828125 994.136719 196.828125 Z M 882.261719 128.609375 C 881.507812 128.609375 880.898438 129.222656 880.898438 129.972656 L 880.898438 187.277344 C 880.898438 188.03125 881.507812 188.640625 882.261719 188.640625 L 994.136719 188.640625 C 994.890625 188.640625 995.503906 188.03125 995.503906 187.277344 L 995.503906 129.972656 C 995.503906 129.222656 994.890625 128.609375 994.136719 128.609375 Z M 882.261719 128.609375 " fill-opacity="1" fill-rule="nonzero"/></g><g fill="#ffffff" fill-opacity="1"><g transform="translate(309.920002, 359.215249)"><g><path d="M 25.140625 -143.0625 L 61.203125 -142.859375 C 80.046875 -142.859375 96.613281 -136.066406 110.90625 -122.484375 C 125.195312 -108.910156 132.34375 -92.21875 132.34375 -72.40625 C 132.34375 -52.59375 125.359375 -35.601562 111.390625 -21.4375 C 97.421875 -7.269531 80.492188 -0.1875 60.609375 -0.1875 L 24.953125 -0.1875 C 17.023438 -0.1875 12.085938 -1.8125 10.140625 -5.0625 C 8.578125 -7.789062 7.796875 -11.953125 7.796875 -17.546875 L 7.796875 -125.90625 C 7.796875 -129.03125 7.890625 -131.304688 8.078125 -132.734375 C 8.273438 -134.160156 8.894531 -135.847656 9.9375 -137.796875 C 11.757812 -141.304688 16.828125 -143.0625 25.140625 -143.0625 Z M 61.203125 -34.6875 C 70.554688 -34.6875 79 -38.160156 86.53125 -45.109375 C 94.070312 -52.066406 97.84375 -60.804688 97.84375 -71.328125 C 97.84375 -81.859375 94.171875 -90.664062 86.828125 -97.75 C 79.484375 -104.832031 70.875 -108.375 61 -108.375 L 42.296875 -108.375 L 42.296875 -34.6875 Z M 61.203125 -34.6875 "/></g></g></g><g fill="#ffffff" fill-opacity="1"><g transform="translate(450.056363, 359.215249)"><g><path d="M 103.5 -33.328125 C 108.5625 -33.328125 112.226562 -32.707031 114.5 -31.46875 C 116.78125 -30.238281 118.34375 -28.453125 119.1875 -26.109375 C 120.03125 -23.773438 120.453125 -20.785156 120.453125 -17.140625 C 120.453125 -13.503906 120.125 -10.582031 119.46875 -8.375 C 118.820312 -6.164062 118.046875 -4.476562 117.140625 -3.3125 C 116.234375 -2.144531 114.867188 -1.300781 113.046875 -0.78125 C 110.960938 0 107.648438 0.390625 103.109375 0.390625 L 22.03125 0.390625 C 19.039062 0.390625 16.179688 -0.390625 13.453125 -1.953125 C 7.734375 -5.203125 4.875 -10.332031 4.875 -17.34375 C 4.875 -20.726562 5.65625 -23.457031 7.21875 -25.53125 L 67.625 -109.140625 L 22.796875 -109.140625 C 19.679688 -109.140625 17.375 -109.238281 15.875 -109.4375 C 14.382812 -109.632812 12.601562 -110.1875 10.53125 -111.09375 C 6.757812 -112.914062 4.875 -117.789062 4.875 -125.71875 C 4.875 -134.03125 6.628906 -139.097656 10.140625 -140.921875 C 12.085938 -141.953125 13.804688 -142.566406 15.296875 -142.765625 C 16.796875 -142.960938 19.101562 -143.0625 22.21875 -143.0625 L 100.578125 -143.0625 C 103.554688 -143.0625 106.410156 -142.28125 109.140625 -140.71875 C 111.867188 -139.164062 113.976562 -137.085938 115.46875 -134.484375 C 116.96875 -131.890625 117.71875 -128.835938 117.71875 -125.328125 C 117.71875 -121.816406 116.941406 -119.019531 115.390625 -116.9375 L 54.96875 -33.328125 Z M 103.5 -33.328125 "/></g></g></g><g fill="#ffffff" fill-opacity="1"><g transform="translate(578.303565, 359.215249)"><g><path d="M 7.796875 -125.71875 C 7.796875 -128.707031 7.890625 -130.945312 8.078125 -132.4375 C 8.273438 -133.9375 8.894531 -135.660156 9.9375 -137.609375 C 11.757812 -141.109375 16.828125 -142.859375 25.140625 -142.859375 C 34.234375 -142.859375 39.625 -140.457031 41.3125 -135.65625 C 41.96875 -133.445312 42.296875 -130.066406 42.296875 -125.515625 L 42.296875 -17.15625 C 42.296875 -14.03125 42.195312 -11.753906 42 -10.328125 C 41.800781 -8.898438 41.1875 -7.210938 40.15625 -5.265625 C 38.332031 -1.753906 33.265625 0 24.953125 0 C 15.847656 0 10.519531 -2.46875 8.96875 -7.40625 C 8.1875 -9.488281 7.796875 -12.800781 7.796875 -17.34375 Z M 7.796875 -125.71875 "/></g></g></g><g fill="#ffffff" fill-opacity="1"><g transform="translate(631.317599, 359.215249)"><g><path d="M 69 -71.71875 C 88.875 -52.625 102.972656 -38.269531 111.296875 -28.65625 C 115.578125 -23.84375 117.71875 -19.78125 117.71875 -16.46875 C 117.71875 -13.15625 115.117188 -9.253906 109.921875 -4.765625 C 104.722656 -0.285156 100.46875 1.953125 97.15625 1.953125 C 93.84375 1.953125 89.847656 -0.773438 85.171875 -6.234375 L 42.296875 -55.15625 L 42.296875 -17.15625 C 42.296875 -14.03125 42.195312 -11.753906 42 -10.328125 C 41.800781 -8.898438 41.1875 -7.210938 40.15625 -5.265625 C 38.332031 -1.753906 33.265625 0 24.953125 0 C 15.847656 0 10.519531 -2.46875 8.96875 -7.40625 C 8.1875 -9.488281 7.796875 -12.800781 7.796875 -17.34375 L 7.796875 -125.71875 C 7.796875 -128.707031 7.890625 -130.945312 8.078125 -132.4375 C 8.273438 -133.9375 8.894531 -135.660156 9.9375 -137.609375 C 11.757812 -141.109375 16.828125 -142.859375 25.140625 -142.859375 C 34.234375 -142.859375 39.625 -140.457031 41.3125 -135.65625 C 41.96875 -133.445312 42.296875 -130.066406 42.296875 -125.515625 L 42.296875 -88.296875 C 59.960938 -108.171875 74.253906 -124.476562 85.171875 -137.21875 C 89.722656 -142.539062 93.6875 -145.203125 97.0625 -145.203125 C 100.4375 -145.203125 104.722656 -142.957031 109.921875 -138.46875 C 115.117188 -133.988281 117.71875 -130.09375 117.71875 -126.78125 C 117.71875 -123.46875 115.769531 -119.539062 111.875 -115 C 104.34375 -106.289062 92.648438 -94.332031 76.796875 -79.125 Z M 69 -71.71875 "/></g></g></g><g fill="#ffffff" fill-opacity="1"><g transform="translate(758.785204, 359.215249)"><g><path d="M 117.140625 -24.171875 C 119.085938 -19.492188 120.0625 -16.113281 120.0625 -14.03125 C 120.0625 -9.09375 116.035156 -4.9375 107.984375 -1.5625 C 103.816406 0.257812 100.46875 1.171875 97.9375 1.171875 C 95.40625 1.171875 93.328125 0.554688 91.703125 -0.671875 C 90.078125 -1.910156 88.875 -3.179688 88.09375 -4.484375 C 86.800781 -6.953125 81.734375 -18.710938 72.890625 -39.765625 L 66.859375 -39.375 L 42.296875 -39.375 L 42.296875 -17.34375 C 42.296875 -14.351562 42.195312 -12.109375 42 -10.609375 C 41.800781 -9.117188 41.1875 -7.398438 40.15625 -5.453125 C 38.332031 -1.941406 33.265625 -0.1875 24.953125 -0.1875 C 15.847656 -0.1875 10.519531 -2.59375 8.96875 -7.40625 C 8.1875 -9.613281 7.796875 -12.992188 7.796875 -17.546875 L 7.796875 -125.71875 C 7.796875 -128.707031 7.890625 -130.945312 8.078125 -132.4375 C 8.273438 -133.9375 8.894531 -135.660156 9.9375 -137.609375 C 11.757812 -141.109375 16.828125 -142.859375 25.140625 -142.859375 L 67.25 -142.859375 C 78.675781 -142.859375 89.785156 -138.703125 100.578125 -130.390625 C 105.773438 -126.359375 110.0625 -120.898438 113.4375 -114.015625 C 116.8125 -107.128906 118.5 -99.460938 118.5 -91.015625 C 118.5 -76.335938 113.628906 -64.253906 103.890625 -54.765625 C 106.742188 -47.878906 111.160156 -37.679688 117.140625 -24.171875 Z M 42.296875 -73.875 L 67.25 -73.875 C 71.007812 -73.875 74.773438 -75.300781 78.546875 -78.15625 C 82.316406 -81.019531 84.203125 -85.304688 84.203125 -91.015625 C 84.203125 -96.734375 82.316406 -101.054688 78.546875 -103.984375 C 74.773438 -106.910156 70.878906 -108.375 66.859375 -108.375 L 42.296875 -108.375 Z M 42.296875 -73.875 "/></g></g></g><g fill="#ffffff" fill-opacity="1"><g transform="translate(884.69354, 359.215249)"><g><path d="M 121.234375 -140.140625 C 127.597656 -135.722656 130.78125 -131.4375 130.78125 -127.28125 C 130.78125 -124.8125 129.285156 -121.363281 126.296875 -116.9375 L 84.203125 -53.984375 L 84.203125 -16.765625 C 84.203125 -13.773438 84.101562 -11.53125 83.90625 -10.03125 C 83.707031 -8.539062 83.085938 -6.820312 82.046875 -4.875 C 81.015625 -2.925781 79.265625 -1.5625 76.796875 -0.78125 C 74.328125 0 71.007812 0.390625 66.84375 0.390625 C 62.6875 0.390625 59.375 0 56.90625 -0.78125 C 54.4375 -1.5625 52.679688 -2.957031 51.640625 -4.96875 C 50.609375 -6.976562 49.992188 -8.726562 49.796875 -10.21875 C 49.597656 -11.71875 49.5 -14.03125 49.5 -17.15625 L 49.5 -53.984375 L 7.40625 -116.9375 C 4.414062 -121.363281 2.921875 -124.8125 2.921875 -127.28125 C 2.921875 -131.4375 5.78125 -135.429688 11.5 -139.265625 C 17.21875 -143.097656 21.3125 -145.015625 23.78125 -145.015625 C 26.25 -145.015625 28.195312 -144.492188 29.625 -143.453125 C 31.832031 -142.023438 34.171875 -139.359375 36.640625 -135.453125 L 66.859375 -87.125 L 97.0625 -135.453125 C 99.53125 -139.359375 101.671875 -141.925781 103.484375 -143.15625 C 105.304688 -144.394531 107.421875 -145.015625 109.828125 -145.015625 C 112.234375 -145.015625 116.035156 -143.390625 121.234375 -140.140625 Z M 121.234375 -140.140625 "/></g></g></g></svg>