<svg xmlns="http://www.w3.org/2000/svg" xmlns:xlink="http://www.w3.org/1999/xlink" width="1366" zoomAndPan="magnify" viewBox="0 0 1024.5 576" height="768" preserveAspectRatio="xMidYMid meet" version="1.0"><defs><g/><clipPath id="b9f28e80c5"><path d="M 853.367188 141.507812 L 984.550781 141.507812 L 984.550781 217.972656 L 853.367188 217.972656 Z M 853.367188 141.507812 " clip-rule="nonzero"/></clipPath></defs><path fill="#0284c7" d="M 109.910156 164.367188 C 103.988281 159.035156 94.84375 159.515625 89.515625 165.4375 L 26.019531 235.984375 C 21.074219 241.484375 21.074219 249.816406 26.019531 255.320312 L 89.515625 325.867188 C 92.363281 329.035156 96.300781 330.640625 100.253906 330.640625 C 103.695312 330.640625 107.152344 329.421875 109.910156 326.9375 C 115.839844 321.597656 116.320312 312.464844 110.984375 306.53125 L 56.1875 245.652344 L 110.984375 184.773438 C 116.320312 178.839844 115.839844 169.707031 109.910156 164.367188 Z M 109.910156 164.367188 " fill-opacity="1" fill-rule="nonzero"/><path fill="#0284c7" d="M 317.113281 235.984375 L 253.617188 165.4375 C 248.285156 159.515625 239.15625 159.035156 233.222656 164.367188 C 227.292969 169.707031 226.8125 178.839844 232.148438 184.773438 L 286.945312 245.652344 L 232.148438 306.53125 C 226.8125 312.464844 227.292969 321.597656 233.222656 326.9375 C 235.980469 329.421875 239.4375 330.640625 242.878906 330.640625 C 246.832031 330.640625 250.769531 329.035156 253.617188 325.867188 L 317.113281 255.320312 C 322.058594 249.816406 322.058594 241.484375 317.113281 235.984375 Z M 317.113281 235.984375 " fill-opacity="1" fill-rule="nonzero"/><path fill="#0284c7" d="M 204.15625 112.910156 C 196.386719 111.027344 188.585938 115.75 186.6875 123.496094 L 128.394531 360.921875 C 126.488281 368.671875 131.230469 376.484375 138.976562 378.394531 C 140.136719 378.675781 141.292969 378.808594 142.429688 378.808594 C 148.925781 378.808594 154.828125 374.398438 156.445312 367.804688 L 214.738281 130.382812 C 216.644531 122.632812 211.902344 114.816406 204.15625 112.910156 Z M 204.15625 112.910156 " fill-opacity="1" fill-rule="nonzero"/><path fill="#0284c7" d="M 888.035156 201.542969 L 879.382812 201.542969 C 877.121094 201.542969 875.289062 199.707031 875.289062 197.449219 L 875.289062 161.976562 C 875.289062 159.714844 877.121094 157.882812 879.382812 157.882812 L 888.035156 157.882812 C 895.699219 157.882812 901.9375 163.921875 901.9375 171.351562 L 901.9375 188.070312 C 901.9375 195.5 895.703125 201.542969 888.035156 201.542969 Z M 883.472656 193.355469 L 888.035156 193.355469 C 891.1875 193.355469 893.75 190.988281 893.75 188.070312 L 893.75 171.351562 C 893.75 168.4375 891.1875 166.066406 888.035156 166.066406 L 883.472656 166.066406 Z M 883.472656 193.355469 " fill-opacity="1" fill-rule="nonzero"/><path fill="#0284c7" d="M 926.859375 201.359375 L 908.398438 201.359375 C 906.140625 201.359375 904.304688 199.527344 904.304688 197.269531 L 904.304688 161.976562 C 904.304688 159.714844 906.140625 157.882812 908.398438 157.882812 L 926.859375 157.882812 C 929.121094 157.882812 930.953125 159.714844 930.953125 161.976562 C 930.953125 164.234375 929.121094 166.066406 926.859375 166.066406 L 912.492188 166.066406 L 912.492188 193.175781 L 926.859375 193.175781 C 929.121094 193.175781 930.953125 195.007812 930.953125 197.269531 C 930.953125 199.527344 929.121094 201.359375 926.859375 201.359375 Z M 926.859375 201.359375 " fill-opacity="1" fill-rule="nonzero"/><path fill="#0284c7" d="M 921.582031 183.710938 L 908.394531 183.710938 C 906.132812 183.710938 904.300781 181.878906 904.300781 179.617188 C 904.300781 177.359375 906.132812 175.527344 908.394531 175.527344 L 921.582031 175.527344 C 923.84375 175.527344 925.675781 177.359375 925.675781 179.617188 C 925.675781 181.878906 923.84375 183.710938 921.582031 183.710938 Z M 921.582031 183.710938 " fill-opacity="1" fill-rule="nonzero"/><path fill="#0284c7" d="M 947.964844 201.542969 C 946.152344 201.542969 944.558594 200.351562 944.042969 198.617188 L 933.488281 163.144531 C 932.84375 160.976562 934.074219 158.699219 936.242188 158.050781 C 938.414062 157.414062 940.691406 158.640625 941.335938 160.808594 L 947.964844 183.089844 L 954.589844 160.808594 C 955.234375 158.640625 957.515625 157.40625 959.683594 158.050781 C 961.847656 158.695312 963.082031 160.976562 962.4375 163.144531 L 951.890625 198.617188 C 951.371094 200.351562 949.777344 201.542969 947.964844 201.542969 Z M 947.964844 201.542969 " fill-opacity="1" fill-rule="nonzero"/><g clip-path="url(#b9f28e80c5)"><path fill="#0284c7" d="M 974.886719 217.914062 L 863.007812 217.914062 C 857.742188 217.914062 853.457031 213.628906 853.457031 208.363281 L 853.457031 151.058594 C 853.457031 145.792969 857.742188 141.507812 863.007812 141.507812 L 974.886719 141.507812 C 980.152344 141.507812 984.4375 145.792969 984.4375 151.058594 L 984.4375 208.363281 C 984.4375 213.628906 980.152344 217.914062 974.886719 217.914062 Z M 863.007812 149.695312 C 862.257812 149.695312 861.644531 150.308594 861.644531 151.058594 L 861.644531 208.363281 C 861.644531 209.117188 862.257812 209.726562 863.007812 209.726562 L 974.886719 209.726562 C 975.640625 209.726562 976.25 209.117188 976.25 208.363281 L 976.25 151.058594 C 976.25 150.308594 975.640625 149.695312 974.886719 149.695312 Z M 863.007812 149.695312 " fill-opacity="1" fill-rule="nonzero"/></g><g fill="#ffffff" fill-opacity="1"><g transform="translate(341.715645, 375.639538)"><g><path d="M 22.828125 -129.84375 L 55.546875 -129.671875 C 72.648438 -129.671875 87.6875 -123.507812 100.65625 -111.1875 C 113.632812 -98.863281 120.125 -83.707031 120.125 -65.71875 C 120.125 -47.738281 113.78125 -32.316406 101.09375 -19.453125 C 88.414062 -6.597656 73.054688 -0.171875 55.015625 -0.171875 L 22.640625 -0.171875 C 15.453125 -0.171875 10.972656 -1.644531 9.203125 -4.59375 C 7.785156 -7.070312 7.078125 -10.847656 7.078125 -15.921875 L 7.078125 -114.28125 C 7.078125 -117.113281 7.164062 -119.175781 7.34375 -120.46875 C 7.519531 -121.769531 8.078125 -123.304688 9.015625 -125.078125 C 10.671875 -128.253906 15.273438 -129.84375 22.828125 -129.84375 Z M 55.546875 -31.484375 C 64.035156 -31.484375 71.703125 -34.640625 78.546875 -40.953125 C 85.390625 -47.265625 88.8125 -55.195312 88.8125 -64.75 C 88.8125 -74.300781 85.476562 -82.289062 78.8125 -88.71875 C 72.144531 -95.144531 64.332031 -98.359375 55.375 -98.359375 L 38.390625 -98.359375 L 38.390625 -31.484375 Z M 55.546875 -31.484375 "/></g></g></g><g fill="#ffffff" fill-opacity="1"><g transform="translate(468.905576, 375.639538)"><g><path d="M 93.9375 -30.25 C 98.539062 -30.25 101.875 -29.6875 103.9375 -28.5625 C 106 -27.445312 107.410156 -25.828125 108.171875 -23.703125 C 108.941406 -21.578125 109.328125 -18.863281 109.328125 -15.5625 C 109.328125 -12.257812 109.03125 -9.601562 108.4375 -7.59375 C 107.851562 -5.59375 107.144531 -4.0625 106.3125 -3 C 105.488281 -1.945312 104.253906 -1.179688 102.609375 -0.703125 C 100.722656 0.00390625 97.710938 0.359375 93.578125 0.359375 L 19.984375 0.359375 C 17.273438 0.359375 14.679688 -0.347656 12.203125 -1.765625 C 7.015625 -4.710938 4.421875 -9.375 4.421875 -15.75 C 4.421875 -18.8125 5.128906 -21.285156 6.546875 -23.171875 L 61.390625 -99.0625 L 20.703125 -99.0625 C 17.867188 -99.0625 15.773438 -99.148438 14.421875 -99.328125 C 13.066406 -99.503906 11.441406 -100.007812 9.546875 -100.84375 C 6.128906 -102.488281 4.421875 -106.910156 4.421875 -114.109375 C 4.421875 -121.648438 6.015625 -126.25 9.203125 -127.90625 C 10.972656 -128.84375 12.535156 -129.398438 13.890625 -129.578125 C 15.242188 -129.753906 17.335938 -129.84375 20.171875 -129.84375 L 91.28125 -129.84375 C 94 -129.84375 96.59375 -129.132812 99.0625 -127.71875 C 101.539062 -126.3125 103.457031 -124.425781 104.8125 -122.0625 C 106.164062 -119.707031 106.84375 -116.9375 106.84375 -113.75 C 106.84375 -110.5625 106.140625 -108.023438 104.734375 -106.140625 L 49.890625 -30.25 Z M 93.9375 -30.25 "/></g></g></g><g fill="#ffffff" fill-opacity="1"><g transform="translate(585.304718, 375.639538)"><g><path d="M 7.078125 -114.109375 C 7.078125 -116.816406 7.164062 -118.847656 7.34375 -120.203125 C 7.519531 -121.566406 8.078125 -123.128906 9.015625 -124.890625 C 10.671875 -128.078125 15.273438 -129.671875 22.828125 -129.671875 C 31.078125 -129.671875 35.96875 -127.488281 37.5 -123.125 C 38.09375 -121.125 38.390625 -118.054688 38.390625 -113.921875 L 38.390625 -15.5625 C 38.390625 -12.738281 38.300781 -10.675781 38.125 -9.375 C 37.945312 -8.082031 37.382812 -6.550781 36.4375 -4.78125 C 34.789062 -1.59375 30.191406 0 22.640625 0 C 14.390625 0 9.554688 -2.238281 8.140625 -6.71875 C 7.429688 -8.601562 7.078125 -11.613281 7.078125 -15.75 Z M 7.078125 -114.109375 "/></g></g></g><g fill="#ffffff" fill-opacity="1"><g transform="translate(633.421197, 375.639538)"><g><path d="M 62.625 -65.09375 C 80.664062 -47.757812 93.460938 -34.726562 101.015625 -26 C 104.898438 -21.632812 106.84375 -17.945312 106.84375 -14.9375 C 106.84375 -11.9375 104.484375 -8.398438 99.765625 -4.328125 C 95.054688 -0.265625 91.195312 1.765625 88.1875 1.765625 C 85.175781 1.765625 81.550781 -0.707031 77.3125 -5.65625 L 38.390625 -50.0625 L 38.390625 -15.5625 C 38.390625 -12.738281 38.300781 -10.675781 38.125 -9.375 C 37.945312 -8.082031 37.382812 -6.550781 36.4375 -4.78125 C 34.789062 -1.59375 30.191406 0 22.640625 0 C 14.390625 0 9.554688 -2.238281 8.140625 -6.71875 C 7.429688 -8.601562 7.078125 -11.613281 7.078125 -15.75 L 7.078125 -114.109375 C 7.078125 -116.816406 7.164062 -118.847656 7.34375 -120.203125 C 7.519531 -121.566406 8.078125 -123.128906 9.015625 -124.890625 C 10.671875 -128.078125 15.273438 -129.671875 22.828125 -129.671875 C 31.078125 -129.671875 35.96875 -127.488281 37.5 -123.125 C 38.09375 -121.125 38.390625 -118.054688 38.390625 -113.921875 L 38.390625 -80.140625 C 54.429688 -98.179688 67.40625 -112.984375 77.3125 -124.546875 C 81.4375 -129.378906 85.03125 -131.796875 88.09375 -131.796875 C 91.164062 -131.796875 95.054688 -129.757812 99.765625 -125.6875 C 104.484375 -121.625 106.84375 -118.085938 106.84375 -115.078125 C 106.84375 -112.066406 105.078125 -108.5 101.546875 -104.375 C 94.703125 -96.46875 84.085938 -85.617188 69.703125 -71.828125 Z M 62.625 -65.09375 "/></g></g></g><g fill="#ffffff" fill-opacity="1"><g transform="translate(749.112747, 375.639538)"><g><path d="M 106.328125 -21.9375 C 108.085938 -17.6875 108.96875 -14.617188 108.96875 -12.734375 C 108.96875 -8.253906 105.3125 -4.484375 98 -1.421875 C 94.226562 0.234375 91.191406 1.0625 88.890625 1.0625 C 86.597656 1.0625 84.710938 0.503906 83.234375 -0.609375 C 81.753906 -1.734375 80.664062 -2.882812 79.96875 -4.0625 C 78.78125 -6.3125 74.175781 -16.988281 66.15625 -36.09375 L 60.671875 -35.734375 L 38.390625 -35.734375 L 38.390625 -15.75 C 38.390625 -13.03125 38.300781 -10.992188 38.125 -9.640625 C 37.945312 -8.285156 37.382812 -6.722656 36.4375 -4.953125 C 34.789062 -1.765625 30.191406 -0.171875 22.640625 -0.171875 C 14.390625 -0.171875 9.554688 -2.351562 8.140625 -6.71875 C 7.429688 -8.726562 7.078125 -11.796875 7.078125 -15.921875 L 7.078125 -114.109375 C 7.078125 -116.816406 7.164062 -118.847656 7.34375 -120.203125 C 7.519531 -121.566406 8.078125 -123.128906 9.015625 -124.890625 C 10.671875 -128.078125 15.273438 -129.671875 22.828125 -129.671875 L 61.03125 -129.671875 C 71.40625 -129.671875 81.488281 -125.894531 91.28125 -118.34375 C 96 -114.6875 99.890625 -109.734375 102.953125 -103.484375 C 106.023438 -97.234375 107.5625 -90.273438 107.5625 -82.609375 C 107.5625 -69.285156 103.140625 -58.316406 94.296875 -49.703125 C 96.890625 -43.453125 100.898438 -34.195312 106.328125 -21.9375 Z M 38.390625 -67.046875 L 61.03125 -67.046875 C 64.445312 -67.046875 67.863281 -68.34375 71.28125 -70.9375 C 74.707031 -73.53125 76.421875 -77.421875 76.421875 -82.609375 C 76.421875 -87.804688 74.707031 -91.726562 71.28125 -94.375 C 67.863281 -97.03125 64.328125 -98.359375 60.671875 -98.359375 L 38.390625 -98.359375 Z M 38.390625 -67.046875 "/></g></g></g><g fill="#ffffff" fill-opacity="1"><g transform="translate(863.389117, 375.639538)"><g><path d="M 110.03125 -127.203125 C 115.8125 -123.191406 118.703125 -119.296875 118.703125 -115.515625 C 118.703125 -113.273438 117.347656 -110.148438 114.640625 -106.140625 L 76.421875 -49 L 76.421875 -15.21875 C 76.421875 -12.5 76.332031 -10.460938 76.15625 -9.109375 C 75.976562 -7.753906 75.414062 -6.191406 74.46875 -4.421875 C 73.53125 -2.648438 71.941406 -1.410156 69.703125 -0.703125 C 67.460938 0.00390625 64.453125 0.359375 60.671875 0.359375 C 56.898438 0.359375 53.894531 0.00390625 51.65625 -0.703125 C 49.414062 -1.410156 47.820312 -2.675781 46.875 -4.5 C 45.9375 -6.332031 45.378906 -7.925781 45.203125 -9.28125 C 45.023438 -10.644531 44.9375 -12.738281 44.9375 -15.5625 L 44.9375 -49 L 6.71875 -106.140625 C 4.007812 -110.148438 2.65625 -113.273438 2.65625 -115.515625 C 2.65625 -119.296875 5.25 -122.925781 10.4375 -126.40625 C 15.625 -129.882812 19.335938 -131.625 21.578125 -131.625 C 23.816406 -131.625 25.585938 -131.148438 26.890625 -130.203125 C 28.890625 -128.898438 31.015625 -126.484375 33.265625 -122.953125 L 60.671875 -79.078125 L 88.09375 -122.953125 C 90.332031 -126.484375 92.273438 -128.8125 93.921875 -129.9375 C 95.578125 -131.0625 97.492188 -131.625 99.671875 -131.625 C 101.859375 -131.625 105.3125 -130.148438 110.03125 -127.203125 Z M 110.03125 -127.203125 "/></g></g></g></svg>